<svg width="20" height="27" viewBox="0 0 20 27" fill="none" xmlns="http://www.w3.org/2000/svg">
<g id="Frame 11">
<g id="SVGRepo_iconCarrier">
<path id="Vector" d="M8.48106 18.0312H15.494C17.8283 18.0312 19.0004 16.859 19.0004 14.5247V7.51182C19.0004 5.17753 17.8283 4.00537 15.494 4.00537H8.48106C6.14677 4.00537 4.97461 5.17753 4.97461 7.51182V14.5247C4.97461 16.859 6.14677 18.0312 8.48106 18.0312Z" stroke="white" stroke-width="1.00184" stroke-miterlimit="10" stroke-linecap="round" stroke-linejoin="round"/>
<path id="Vector_2" opacity="0.4" d="M15.9952 0.999512H7.98047" stroke="white" stroke-width="1.00184" stroke-miterlimit="10" stroke-linecap="round" stroke-linejoin="round"/>
<path id="Vector_3" opacity="0.4" d="M15.9952 21.0366H7.98047" stroke="white" stroke-width="1.00184" stroke-miterlimit="10" stroke-linecap="round" stroke-linejoin="round"/>
</g>
<g id="SVGRepo_iconCarrier_2">
<path id="Vector_4" d="M3.45451 22.8957H8.36354C9.99755 22.8957 10.8181 22.0752 10.8181 20.4412V15.5322C10.8181 13.8981 9.99755 13.0776 8.36354 13.0776H3.45451C1.82051 13.0776 1 13.8981 1 15.5322V20.4412C1 22.0752 1.82051 22.8957 3.45451 22.8957Z" stroke="white" stroke-width="0.70129" stroke-miterlimit="10" stroke-linecap="round" stroke-linejoin="round"/>
<path id="Vector_5" opacity="0.4" d="M8.71383 10.9736H3.10352" stroke="white" stroke-width="0.70129" stroke-miterlimit="10" stroke-linecap="round" stroke-linejoin="round"/>
<path id="Vector_6" opacity="0.4" d="M8.71383 24.999H3.10352" stroke="white" stroke-width="0.70129" stroke-miterlimit="10" stroke-linecap="round" stroke-linejoin="round"/>
</g>
</g>
</svg>
