<svg xmlns="http://www.w3.org/2000/svg" width="13" height="22" viewBox="0 0 13 22" fill="none">
  <rect x="3.25" y="1.06494" width="6.5" height="19.8704" stroke="white" stroke-width="0.5"/>
  <rect width="13" height="0.814815" rx="0.407407" fill="white"/>
  <rect x="0.203704" y="21.3888" width="12.5926" height="0.407407" rx="0.203704" fill="#D9D9D9" stroke="white" stroke-width="0.407407"/>
  <path d="M8.65788 14.453C8.89249 14.2618 9.20663 13.9681 9.49223 13.6433C9.33518 13.9397 9.1083 14.215 8.81696 14.4523C8.20956 14.9473 7.37664 15.2314 6.5 15.2314C5.62336 15.2314 4.79043 14.9473 4.18304 14.4523C3.88667 14.2109 3.65701 13.9302 3.4997 13.6279C3.78661 13.9584 4.10397 14.259 4.34211 14.453C4.92153 14.9251 5.69825 15.1842 6.5 15.1842C7.30175 15.1842 8.07847 14.9251 8.65788 14.453Z" fill="white" stroke="white" stroke-width="0.5"/>
  <ellipse cx="6.5" cy="3.87039" rx="0.75" ry="0.611111" fill="white"/>
  <ellipse cx="6.5" cy="6.72244" rx="0.75" ry="0.611111" fill="white"/>
  <ellipse cx="6.5" cy="9.574" rx="0.75" ry="0.611111" fill="white"/>
</svg>
