<svg width="219" height="158" viewBox="0 0 219 158" fill="none" xmlns="http://www.w3.org/2000/svg">
<g clip-path="url(#clip0_1_112)">
<path d="M219 62.538L60.2754 0L0 140.739L219 62.538ZM31.0163 114.839L69.835 23.2681L172.492 64.0719L164.157 65.7997L36.9165 112.626L31.0163 114.839Z" fill="url(#paint0_linear_1_112)"/>
<path d="M69.5288 34.5388L155.646 68.9807L172.411 64.0558L69.8351 23.2681L31.0164 114.839L36.8359 112.691L69.5288 34.5388Z" fill="url(#paint1_linear_1_112)"/>
<path d="M218.339 79.7831L219 62.538L0 140.739L1.88612 158L218.339 79.7831Z" fill="url(#paint2_linear_1_112)"/>
</g>
<defs>
<linearGradient id="paint0_linear_1_112" x1="68.9527" y1="135.261" x2="137.665" y2="34.5034" gradientUnits="userSpaceOnUse">
<stop stop-color="#FEC34A"/>
<stop offset="1" stop-color="#FFE067"/>
</linearGradient>
<linearGradient id="paint1_linear_1_112" x1="135.11" y1="27.0289" x2="110.285" y2="56.469" gradientUnits="userSpaceOnUse">
<stop stop-color="#FE893E"/>
<stop offset="1" stop-color="#FFAD44"/>
</linearGradient>
<linearGradient id="paint2_linear_1_112" x1="80.2329" y1="73.8787" x2="139.756" y2="145.305" gradientUnits="userSpaceOnUse">
<stop stop-color="#FE893E"/>
<stop offset="1" stop-color="#FFAD44"/>
</linearGradient>
<clipPath id="clip0_1_112">
<rect width="219" height="158" fill="white"/>
</clipPath>
</defs>
</svg>
