<svg width="275" height="174" viewBox="0 0 275 174" fill="none" xmlns="http://www.w3.org/2000/svg">
<g clip-path="url(#clip0_1_100)">
<path d="M116.724 115.409L139.123 9.63147L275 68.244L252.601 174.021L116.724 115.409Z" fill="url(#paint0_linear_1_100)"/>
<path style="mix-blend-mode:multiply" d="M116.724 115.409L139.123 9.63147L275 68.244L252.601 174.021L116.724 115.409Z" fill="url(#paint1_radial_1_100)"/>
<path d="M116.724 115.409L0 105.777L22.3988 0L139.123 9.63146L116.724 115.409Z" fill="url(#paint2_linear_1_100)"/>
<path style="mix-blend-mode:multiply" d="M116.724 115.409L0 105.777L22.3988 0L139.123 9.63146L116.724 115.409Z" fill="url(#paint3_radial_1_100)"/>
<path d="M252.601 174.021L135.856 164.39L0 105.777L116.724 115.409L252.601 174.021Z" fill="url(#paint4_linear_1_100)"/>
</g>
<defs>
<linearGradient id="paint0_linear_1_100" x1="244.414" y1="81.8463" x2="134.346" y2="104.63" gradientUnits="userSpaceOnUse">
<stop offset="0.15" stop-color="#8CD5C9"/>
<stop offset="1" stop-color="#3FBAA6"/>
</linearGradient>
<radialGradient id="paint1_radial_1_100" cx="0" cy="0" r="1" gradientUnits="userSpaceOnUse" gradientTransform="translate(111.633 3.8019) scale(148.392 147.767)">
<stop stop-color="#4A4F55"/>
<stop offset="0.17" stop-color="#6F7378" stop-opacity="0.79"/>
<stop offset="0.84" stop-color="white" stop-opacity="0"/>
</radialGradient>
<linearGradient id="paint2_linear_1_100" x1="-52.4888" y1="-2.41547" x2="-43.5798" y2="154.253" gradientUnits="userSpaceOnUse">
<stop offset="0.15" stop-color="#8CD5C9"/>
<stop offset="1" stop-color="#3FBAA6"/>
</linearGradient>
<radialGradient id="paint3_radial_1_100" cx="0" cy="0" r="1" gradientUnits="userSpaceOnUse" gradientTransform="translate(78.203 22.5112) rotate(-3.35584) scale(148.39 62.063)">
<stop stop-color="#4A4F55"/>
<stop offset="0.2" stop-color="#6F7378" stop-opacity="0.79"/>
<stop offset="1" stop-color="white" stop-opacity="0"/>
</radialGradient>
<linearGradient id="paint4_linear_1_100" x1="116.406" y1="181.224" x2="127.158" y2="135.939" gradientUnits="userSpaceOnUse">
<stop offset="0.01" stop-color="#63C7B6"/>
<stop offset="1" stop-color="#00A388"/>
</linearGradient>
<clipPath id="clip0_1_100">
<rect width="275" height="174" fill="white"/>
</clipPath>
</defs>
</svg>
