<svg width="175" height="207" viewBox="0 0 175 207" fill="none" xmlns="http://www.w3.org/2000/svg">
<g id="Isolation_Mode" clip-path="url(#clip0_1430_4351)">
<g id="Group">
<path id="Vector" d="M55.7183 0L72.8322 24.8755C39.0313 46.1974 30.4565 91.3288 53.9037 125.284C61.9905 136.912 73.0657 146.147 85.9639 152.019C98.8621 157.892 113.106 160.183 127.198 158.653C138.109 157.429 148.601 153.754 157.886 147.903L175 172.778C161.978 180.994 147.257 186.146 131.948 187.846C112.171 189.991 92.1802 186.767 74.0834 178.514C55.9866 170.262 40.4539 157.287 29.1223 140.955C-3.7714 93.2655 8.16568 30.0639 55.7183 0Z" fill="url(#paint0_linear_1430_4351)"/>
<path id="Vector_2" d="M62.2652 43.3549L72.8324 24.876C63.244 30.9002 55.2986 39.2022 49.7054 49.0408L39.1382 67.5198C44.7414 57.6887 52.6848 49.3889 62.2652 43.3549Z" fill="url(#paint1_linear_1430_4351)"/>
<path id="Vector_3" d="M131.949 187.775C112.171 189.92 92.1805 186.696 74.0837 178.444C55.9869 170.191 40.4542 157.216 29.1226 140.885C5.99558 107.285 5.01713 65.9205 23.2163 33.9199L12.6668 52.47C-5.51453 84.4528 -4.62503 125.817 18.5909 159.417C29.917 175.749 45.4462 188.726 63.5406 196.979C81.635 205.232 101.624 208.455 121.399 206.307C136.712 204.605 151.439 199.453 164.469 191.24L175 172.708C161.978 180.923 147.257 186.075 131.949 187.775Z" fill="url(#paint2_linear_1430_4351)"/>
</g>
</g>
<defs>
<linearGradient id="paint0_linear_1430_4351" x1="136.912" y1="10.199" x2="-41.6101" y2="446.225" gradientUnits="userSpaceOnUse">
<stop offset="0.15" stop-color="#8CD5C9"/>
<stop offset="1" stop-color="#3FBAA6"/>
</linearGradient>
<linearGradient id="paint1_linear_1430_4351" x1="46.8768" y1="226.563" x2="56.9392" y2="27.0602" gradientUnits="userSpaceOnUse">
<stop offset="0.01" stop-color="#63C7B6"/>
<stop offset="1" stop-color="#00A388"/>
</linearGradient>
<linearGradient id="paint2_linear_1430_4351" x1="82.8127" y1="228.376" x2="92.875" y2="28.8725" gradientUnits="userSpaceOnUse">
<stop offset="0.01" stop-color="#63C7B6"/>
<stop offset="1" stop-color="#00A388"/>
</linearGradient>
<clipPath id="clip0_1430_4351">
<rect width="175" height="207" fill="white"/>
</clipPath>
</defs>
</svg>
