<svg width="175" height="207" viewBox="0 0 175 207" fill="none" xmlns="http://www.w3.org/2000/svg">
<g clip-path="url(#clip0_1_107)">
<path d="M55.7183 0L72.8322 24.8755C39.0313 46.1974 30.4565 91.3288 53.9037 125.284C61.9905 136.912 73.0657 146.147 85.9639 152.019C98.8621 157.892 113.106 160.183 127.198 158.653C138.109 157.429 148.601 153.754 157.886 147.903L175 172.778C161.978 180.994 147.257 186.146 131.948 187.846C112.171 189.991 92.1802 186.767 74.0834 178.514C55.9866 170.262 40.4539 157.287 29.1223 140.955C-3.7714 93.2655 8.16568 30.0639 55.7183 0Z" fill="url(#paint0_linear_1_107)"/>
<path d="M62.2649 43.3545L72.8322 24.8755C63.2438 30.8998 55.2983 39.2018 49.7052 49.0404L39.1379 67.5193C44.7412 57.6883 52.6845 49.3885 62.2649 43.3545Z" fill="url(#paint1_linear_1_107)"/>
<path d="M131.948 187.775C112.171 189.919 92.1802 186.696 74.0835 178.443C55.9867 170.191 40.454 157.215 29.1223 140.884C5.99534 107.285 5.01689 65.9202 23.216 33.9196L12.6666 52.4696C-5.51478 84.4524 -4.62528 125.817 18.5906 159.417C29.9168 175.749 45.4459 188.726 63.5403 196.979C81.6347 205.232 101.624 208.454 121.399 206.307C136.712 204.604 151.438 199.452 164.468 191.24L175 172.707C161.978 180.923 147.257 186.075 131.948 187.775Z" fill="url(#paint2_linear_1_107)"/>
</g>
<defs>
<linearGradient id="paint0_linear_1_107" x1="136.912" y1="10.199" x2="-41.6101" y2="446.225" gradientUnits="userSpaceOnUse">
<stop offset="0.15" stop-color="#8CD5C9"/>
<stop offset="1" stop-color="#3FBAA6"/>
</linearGradient>
<linearGradient id="paint1_linear_1_107" x1="46.8766" y1="226.563" x2="56.9389" y2="27.0598" gradientUnits="userSpaceOnUse">
<stop offset="0.01" stop-color="#63C7B6"/>
<stop offset="1" stop-color="#00A388"/>
</linearGradient>
<linearGradient id="paint2_linear_1_107" x1="82.8124" y1="228.375" x2="92.8748" y2="28.8721" gradientUnits="userSpaceOnUse">
<stop offset="0.01" stop-color="#63C7B6"/>
<stop offset="1" stop-color="#00A388"/>
</linearGradient>
<clipPath id="clip0_1_107">
<rect width="175" height="207" fill="white"/>
</clipPath>
</defs>
</svg>
